<svg width="10" height="10" viewBox="0 0 10 10" fill="none" xmlns="http://www.w3.org/2000/svg">
<path d="M4.99802 0.296902C5.01429 0.388699 5.3255 2.1426 5.3255 2.81252C5.3255 3.834 4.76004 4.56252 3.92406 4.85548L4.18645 9.50586C4.20068 9.77344 3.97898 10 3.69828 10H2.39651C2.11784 10 1.8941 9.77539 1.90834 9.50586L2.17073 4.85548C1.33271 4.56252 0.769287 3.83205 0.769287 2.81252C0.769287 2.14065 1.08049 0.388699 1.09676 0.296902C1.16185 -0.0995812 2.01818 -0.105441 2.07106 0.318386V3.07619C2.0975 3.1426 2.3782 3.13869 2.39651 3.07619C2.42498 2.58205 2.55719 0.357449 2.55923 0.306668C2.62635 -0.0995812 3.46844 -0.0995812 3.53352 0.306668C3.53759 0.359402 3.66777 2.58205 3.69625 3.07619C3.71455 3.13869 3.99728 3.1426 4.02169 3.07619V0.318386C4.07458 -0.103487 4.93293 -0.0995812 4.99802 0.296902V0.296902ZM7.42258 5.87696L7.11747 9.49219C7.09307 9.76563 7.31884 10 7.60361 10H8.74266C9.01318 10 9.23082 9.79102 9.23082 9.53125V0.468777C9.23082 0.210965 9.01318 2.79151e-05 8.74266 2.79151e-05C7.06459 2.79151e-05 4.23933 3.48635 7.42258 5.87696Z" fill="white"/>
</svg>
