<svg width="14" height="20" viewBox="0 0 14 20" fill="none" xmlns="http://www.w3.org/2000/svg">
<path d="M12.0487 0H2.9356C1.85748 0 0.982788 0.835761 0.982788 1.86589V18.0369C0.982788 19.067 1.85748 19.9028 2.9356 19.9028H12.0487C13.1268 19.9028 14.0015 19.067 14.0015 18.0369V1.86589C14.0015 0.835761 13.1268 0 12.0487 0ZM7.49216 18.6589C6.77206 18.6589 6.19028 18.103 6.19028 17.4149C6.19028 16.7269 6.77206 16.171 7.49216 16.171C8.21226 16.171 8.79403 16.7269 8.79403 17.4149C8.79403 18.103 8.21226 18.6589 7.49216 18.6589ZM12.0487 14.4606C12.0487 14.7172 11.829 14.9271 11.5605 14.9271H3.4238C3.15529 14.9271 2.9356 14.7172 2.9356 14.4606V2.33236C2.9356 2.0758 3.15529 1.86589 3.4238 1.86589H11.5605C11.829 1.86589 12.0487 2.0758 12.0487 2.33236V14.4606Z" fill="#7E7E7E"/>
</svg>
