<svg width="10" height="10" viewBox="0 0 10 10" fill="none" xmlns="http://www.w3.org/2000/svg">
<path d="M7.40676 3.74989H5.22949V4.84374C5.22949 5.61919 4.76682 6.25011 4.19816 6.25011C3.62949 6.25011 3.16682 5.61919 3.16682 4.84374V2.46854L2.23718 3.23032C1.96073 3.45495 1.7917 3.86319 1.7917 4.30072V5.22463L0.645772 6.12705C0.426613 6.29894 0.350695 6.68178 0.47818 6.98064L1.62411 9.6879C1.75016 9.98675 2.03092 10.0883 2.25007 9.91643L3.73119 8.75032H5.68786C6.19351 8.75032 6.60461 8.18972 6.60461 7.50021H6.83379C7.08733 7.50021 7.29217 7.22089 7.29217 6.87516V5.62505H7.40676C7.59727 5.62505 7.75054 5.41605 7.75054 5.15626V4.21868C7.75054 3.9589 7.59727 3.74989 7.40676 3.74989ZM9.52243 3.01936L8.3765 0.312104C8.25045 0.0132505 7.9697 -0.0883206 7.75054 0.0835689L6.26942 1.24968H4.8055C4.63361 1.24968 4.46602 1.31609 4.31991 1.43915L3.84005 1.84739C3.70541 1.96068 3.62519 2.16187 3.62519 2.37673V4.84374C3.62519 5.27541 3.88159 5.62505 4.19816 5.62505C4.51472 5.62505 4.77112 5.27541 4.77112 4.84374V3.12484H7.40676C7.84938 3.12484 8.20891 3.61512 8.20891 4.21868V4.77537L9.35484 3.87295C9.574 3.69911 9.64849 3.31822 9.52243 3.01936Z" fill="white"/>
</svg>
